<svg xmlns="http://www.w3.org/2000/svg" viewBox="0 0 32 32">
  <!-- Фавиконка ПрофиКвиза: жёлтая плашка + «?» в фирменном тёмно-фиолетовом -->
  <rect width="32" height="32" rx="7" fill="#FFBD5B"/>
  <path d="M 16 5
           C 11 5, 8 8, 8 13
           L 13 13
           C 13 11, 14 9.5, 16 9.5
           C 18 9.5, 19 11, 19 12.5
           C 19 14, 18 15, 16.5 16
           C 14.5 17.5, 13.5 19, 13.5 22
           L 18.5 22
           C 18.5 20.5, 19 19.5, 20.5 18.5
           C 22.5 17, 24 15, 24 12.5
           C 24 8, 21 5, 16 5 Z"
        fill="#31263B"/>
  <circle cx="16" cy="26" r="2.5" fill="#31263B"/>
</svg>
