<?xml version="1.0" encoding="UTF-8"?>
<svg id="Master" xmlns="http://www.w3.org/2000/svg" viewBox="0 0 302.86 65.64">
  <defs>
    <style>
      .cls-1 {
        fill: #003462;
      }
    </style>
  </defs>
  <g>
    <path class="cls-1" d="m46.84,9.15L39.37.01v23.97c-4.89,0-8.85,3.96-8.85,8.85H12.55L31.9,9.15h0s2.83-3.47,2.83-3.47L30.09,0,0,32.83l29.85,32.81.25-.31L3.26,32.83h9.28l19.57,23.94v-.02s7.26,8.89,7.26,8.89v-24.13c-4.07-.79-7.14-4.38-7.14-8.68,0-4.6,3.51-8.38,8-8.82,4.49.43,8,4.21,8,8.82h17.96l-19.34-23.68h0Z"/>
    <polygon class="cls-1" points="48.94 0 48.66 .35 75.47 32.83 66.18 32.83 46.62 56.76 46.62 56.77 44.01 59.96 48.66 65.64 78.74 32.83 48.94 0"/>
  </g>
  <g>
    <path class="cls-1" d="m102.9,34.75h10.58v-4.84h-10.58v-4.18h18.13v-4.85h-24.4v23.87h24.62v-5.11h-18.36v-4.89Z"/>
    <path class="cls-1" d="m298.61,25.02s-8.42,10.6-9.09,11.45c-.67-.85-9.08-11.45-9.08-11.45h-4.25v19.74h5.47v-11.33c1.34,1.68,7.19,9.06,7.19,9.06h1.35s5.86-7.38,7.19-9.06v11.33h5.47v-19.74h-4.25Z"/>
    <path class="cls-1" d="m250.6,38.17v-13.15h-5.47v19.74h4.28s14.2-11.98,15.59-13.15v13.15h5.47v-19.74h-4.29s-14.19,11.98-15.58,13.15Z"/>
    <path class="cls-1" d="m238.81,20.89h-7.43s-6.17,6.87-6.78,7.56c-.63-.67-7.13-7.56-7.13-7.56h-8.39s10.95,11.04,11.54,11.64c-.57.62-11.31,12.23-11.31,12.23h7.59s6.92-7.95,7.54-8.66c.65.69,8.19,8.66,8.19,8.66h8.57s-12.22-12.27-12.83-12.88c.59-.62,10.44-10.99,10.44-10.99Z"/>
    <path class="cls-1" d="m146.78,34.61c.39-.19.76-.42,1.05-.69.31-.27,1.04-1.08,1.04-2.52v-2.27c0-.88-.12-2.15-1.13-3.06-1.05-.94-2.66-1.05-3.78-1.05h-17.36v19.74h16.42c1.83,0,3.26-.33,4.25-.96,1.16-.75,1.72-1.79,1.72-3.19v-2.4c0-1.08-.41-2.11-1.12-2.82-.18-.18-.57-.5-1.11-.77Zm-14.71-5.54h9.76c1.1,0,1.31.17,1.31.17.24.21.26.56.26.69v1.78c0,.36-.04.5-.19.63-.19.16-.65.24-1.38.24h-9.76v-3.51Zm11.47,10.2c0,.34-.03.71-.29.94-.12.1-.45.28-1.29.28h-9.89v-3.87h9.8c.94,0,1.24.16,1.39.29.25.22.28.6.28.93v1.42Z"/>
    <path class="cls-1" d="m171.32,25.02h-17.4v19.74h5.47v-7.29h11.93c1.65,0,2.84-.31,3.63-.95,1.11-.9,1.24-2.24,1.24-3.16v-4.22c0-1.92-.55-4.11-4.87-4.11Zm-.33,7.13c0,.45-.06.63-.26.79-.21.16-.6.26-1.09.26h-10.25v-3.91h9.98c.45,0,1.07,0,1.38.28.18.15.25.37.25.76v1.82Z"/>
    <path class="cls-1" d="m204.85,26.13c-1.16-1.11-3.34-1.11-4.28-1.11h-14.71c-1.99,0-3.27.32-4.01,1.02-1.17,1.07-1.17,3.05-1.17,3.9v9.91c0,.74,0,2.73,1.07,3.8.75.75,2.15,1.12,4.29,1.12h14.54c1.54,0,3.26-.09,4.29-1.17,1.06-1.12,1.06-2.93,1.06-3.52v-10.13c0-.9,0-2.78-1.08-3.8Zm-4.39,14.14h-14.31v-10.76h14.31v10.76Z"/>
  </g>
</svg>