<svg width="182" height="73" viewBox="0 0 182 73" fill="none" xmlns="http://www.w3.org/2000/svg">
<path d="M71.7046 2L68.7069 7.52C68.4708 7.99462 68.129 8.40861 67.7077 8.73C67.3201 8.99819 66.8598 9.14126 66.3886 9.14C65.9974 9.13066 65.6112 9.0493 65.2495 8.9L65.6392 7.67C65.8646 7.74789 66.1004 7.79171 66.3387 7.8C66.5276 7.80006 66.7132 7.75187 66.8782 7.66C67.0615 7.5434 67.2155 7.38597 67.3279 7.2V7.13L64.5701 2H66.3087L68.1673 5.75L70.0658 2H71.7046Z" fill="#333333"/>
<path d="M77.1203 2.31001C77.5564 2.49439 77.9285 2.80331 78.1902 3.19815C78.4518 3.593 78.5913 4.05625 78.5913 4.53001C78.5913 5.00378 78.4518 5.46703 78.1902 5.86187C77.9285 6.25672 77.5564 6.56563 77.1203 6.75001C76.6116 6.96372 76.0631 7.06601 75.5116 7.05001H74.0927V8.98001H72.474V2.03001H75.4717C76.0354 1.9961 76.5993 2.09188 77.1203 2.31001ZM76.5208 5.43001C76.6484 5.31985 76.7507 5.18341 76.8206 5.03001C76.8811 4.87404 76.9083 4.70714 76.9005 4.54001C76.9091 4.36959 76.8819 4.19925 76.8206 4.04001C76.7534 3.88217 76.6508 3.7419 76.5208 3.63001C76.1992 3.39903 75.8063 3.28923 75.4117 3.32001H74.0927V5.72001H75.4217C75.8102 5.74932 76.1972 5.64719 76.5208 5.43001Z" fill="#333333"/>
<path d="M84.035 7.48H80.7575L80.118 8.98H78.4794L81.597 2.03H83.1957L86.3333 9.03H84.6345L84.035 7.48ZM83.5254 6.25L82.4163 3.59L81.2971 6.25H83.5254Z" fill="#333333"/>
<path d="M93.5477 2V9H91.959V3.26H89.5608L89.5108 4.72C89.4908 5.52818 89.4107 6.33375 89.271 7.13C89.1813 7.64683 88.9611 8.13217 88.6315 8.54C88.4709 8.71301 88.2726 8.84649 88.0519 8.93C87.8335 9.01818 87.5969 9.05248 87.3624 9.03C87.093 9.0269 86.825 8.99335 86.5631 8.93L86.663 7.56C86.7591 7.57409 86.8567 7.57409 86.9528 7.56C87.144 7.5686 87.3318 7.50828 87.4823 7.39C87.6328 7.27874 87.7419 7.12036 87.7921 6.94C87.9742 6.24089 88.0715 5.52239 88.082 4.8L88.1719 1.97L93.5477 2Z" fill="#333333"/>
<path d="M100.662 4.85C100.901 5.06009 101.086 5.32406 101.202 5.62C101.322 5.9075 101.373 6.21912 101.352 6.53C101.374 6.8711 101.319 7.21278 101.192 7.53C101.058 7.84335 100.853 8.12084 100.592 8.34C99.9846 8.79769 99.2327 9.02131 98.4739 8.97H95.2964V2.03H96.9151V4.33H98.6838C99.3838 4.26582 100.084 4.44988 100.662 4.85ZM99.4032 7.47C99.5219 7.35851 99.6141 7.22183 99.673 7.07C99.738 6.9153 99.7654 6.74736 99.7529 6.58C99.7529 5.85 99.3133 5.49 98.414 5.49H96.9551V7.78H98.404C98.5827 7.79696 98.7631 7.77829 98.9346 7.72508C99.1061 7.67187 99.2654 7.58518 99.4032 7.47Z" fill="#333333"/>
<path d="M103.9 8.63001C103.34 8.34239 102.87 7.90656 102.541 7.37001C102.214 6.80484 102.041 6.16321 102.041 5.51001C102.041 4.85681 102.214 4.21519 102.541 3.65001C102.87 3.11347 103.34 2.67764 103.9 2.39002C104.452 2.10925 105.059 1.95228 105.678 1.93001C106.301 1.90091 106.922 2.0102 107.497 2.25001C107.973 2.4508 108.395 2.76283 108.726 3.16001L107.727 4.16001C107.513 3.89985 107.243 3.69135 106.937 3.55002C106.6 3.39913 106.233 3.32786 105.864 3.34173C105.495 3.35561 105.134 3.45424 104.809 3.63002C104.473 3.81143 104.195 4.0856 104.01 4.42001C103.827 4.77595 103.731 5.16998 103.73 5.57001C103.731 5.97325 103.827 6.37054 104.01 6.73001C104.195 7.06443 104.473 7.3386 104.809 7.52001C105.164 7.71289 105.564 7.80942 105.968 7.80001C106.314 7.81778 106.658 7.74542 106.967 7.59001C107.274 7.45114 107.545 7.24223 107.757 6.98001L108.756 7.98001C108.415 8.38666 107.979 8.70269 107.487 8.90001C106.965 9.12004 106.404 9.22902 105.838 9.22002C105.152 9.19324 104.484 8.99005 103.9 8.63001Z" fill="#333333"/>
<path d="M112.503 6.17H111.394V8.98H109.785V2.03H111.394V4.85H112.553L114.392 2.04H116.11L113.822 5.4L116.18 9.01H114.342L112.503 6.17Z" fill="#333333"/>
<path d="M116.92 2H118.528V6.54L121.866 2H123.365V9H121.796V4.45L118.449 8.99H116.92V2Z" fill="#333333"/>
<path d="M89.271 13.93H90.8797V18.48L94.2172 13.93H95.746V20.93H94.1372V16.35L90.7998 20.85H89.271V13.93Z" fill="#333333"/>
<path d="M125.133 2H126.742V6.54L130.079 2H131.608V9H130V4.45L126.662 8.99H125.133V2ZM126.392 0H127.511C127.511 0.49 127.801 0.73 128.341 0.73C128.567 0.749475 128.792 0.681492 128.97 0.540001C129.047 0.471972 129.105 0.386085 129.14 0.290001C129.165 0.194894 129.165 0.0951071 129.14 0H130.259C130.269 0.216483 130.228 0.432226 130.139 0.630001C130.056 0.828033 129.925 1.00296 129.76 1.14C129.335 1.42943 128.823 1.56361 128.311 1.52C127.032 1.52 126.382 1.02 126.372 0H126.392Z" fill="#333333"/>
<path d="M71.7645 13.93V20.93H70.1558V15.2H66.9783V20.85H65.4294V13.85L71.7645 13.93Z" fill="#333333"/>
<path d="M74.882 20.59C74.4544 20.3613 74.0779 20.0479 73.7755 19.6687C73.473 19.2895 73.2509 18.8527 73.1228 18.3847C72.9947 17.9168 72.9632 17.4276 73.0303 16.9471C73.0974 16.4666 73.2617 16.0048 73.5131 15.59C73.8418 15.0393 74.3153 14.5896 74.882 14.29C75.4904 13.9808 76.1633 13.8197 76.8456 13.8197C77.528 13.8197 78.2006 13.9808 78.8091 14.29C79.374 14.5921 79.8469 15.0412 80.178 15.59C80.5165 16.1431 80.6898 16.7815 80.6776 17.43C80.6884 18.0814 80.5153 18.7227 80.178 19.28C79.8402 19.8156 79.3683 20.2534 78.8091 20.55C78.1931 20.8717 77.5051 21.03 76.8106 21.01C76.1434 21.0266 75.482 20.8825 74.882 20.59ZM77.9697 19.39C78.2988 19.2056 78.5689 18.9317 78.749 18.6C78.9388 18.2446 79.0382 17.8479 79.0382 17.445C79.0382 17.0421 78.9388 16.6453 78.749 16.29C78.5689 15.9583 78.2988 15.6844 77.9697 15.5C77.6235 15.3161 77.2375 15.22 76.8456 15.22C76.4537 15.22 76.0677 15.3161 75.7215 15.5C75.3924 15.6844 75.1221 15.9583 74.942 16.29C74.7522 16.6453 74.653 17.0421 74.653 17.445C74.653 17.8479 74.7522 18.2446 74.942 18.6C75.1221 18.9317 75.3924 19.2056 75.7215 19.39C76.0657 19.58 76.4525 19.6796 76.8456 19.6796C77.2387 19.6796 77.6255 19.58 77.9697 19.39Z" fill="#333333"/>
<path d="M87.9621 13.93V20.93H86.4132V15.2H84.0151V16.66C84.005 17.4655 83.9248 18.2685 83.7752 19.06C83.6957 19.578 83.4782 20.0651 83.1457 20.47C82.9852 20.643 82.7869 20.7765 82.5662 20.86C82.347 20.9458 82.1117 20.9833 81.8767 20.97C81.6037 20.9629 81.3324 20.926 81.0674 20.86L81.1673 19.49C81.2666 19.5051 81.3677 19.5051 81.4671 19.49C81.8468 19.49 82.0965 19.26 82.2764 18.81C82.4638 18.1122 82.5579 17.3926 82.5562 16.67L82.6861 13.89L87.9621 13.93Z" fill="#333333"/>
<path d="M102.99 15.27H100.752V20.96H99.1534V15.27H96.9252V13.93H102.99V15.27Z" fill="#333333"/>
<path d="M109.446 19.62V20.85H104.02V13.85H109.306V15.12H105.598V16.63H108.856V17.9H105.598V19.54L109.446 19.62Z" fill="#333333"/>
<path d="M111.943 13.93L113.392 16.05L114.831 13.93H116.74L114.392 17.28L116.93 20.91H115.021L113.392 18.6L111.784 20.91H109.875L112.393 17.35L110.025 13.93H111.943Z" fill="#333333"/>
<path d="M124.104 13.93V20.93H122.485V18.03H119.308V20.85H117.659V13.85H119.308V16.6H122.475V13.93H124.104Z" fill="#333333"/>
<path d="M125.863 13.93H127.461V18.48L130.809 13.93H132.378V20.93H130.779V16.35L127.382 20.85H125.853L125.863 13.93Z" fill="#333333"/>
<path d="M139.622 13.93V20.93H138.023V18.36C137.482 18.5603 136.911 18.6685 136.335 18.68C135.553 18.7402 134.778 18.5007 134.166 18.01C133.906 17.7607 133.705 17.4567 133.577 17.12C133.449 16.7856 133.394 16.4274 133.417 16.07V13.93H135.016V15.93C135.003 16.1268 135.03 16.3241 135.096 16.51C135.193 16.7976 135.389 17.0415 135.648 17.1988C135.908 17.3561 136.215 17.4167 136.514 17.37C137.034 17.3772 137.549 17.2715 138.023 17.06V13.91L139.622 13.93Z" fill="#333333"/>
<path d="M146.777 19.62V20.85H141.371V13.85H146.667V15.12H142.979V16.63H146.217V17.9H142.979V19.54L146.777 19.62Z" fill="#333333"/>
<path d="M149.454 20.59C148.89 20.3056 148.416 19.8692 148.086 19.33C147.765 18.7625 147.597 18.1218 147.597 17.47C147.597 16.8182 147.765 16.1774 148.086 15.61C148.419 15.0731 148.892 14.6374 149.454 14.35C150.007 14.0683 150.614 13.9113 151.233 13.89C151.851 13.8618 152.468 13.9675 153.042 14.2C153.518 14.4056 153.939 14.7208 154.271 15.12L153.272 16.07C153.057 15.8135 152.787 15.6084 152.482 15.47C152.169 15.3256 151.828 15.2538 151.483 15.26C151.079 15.2529 150.68 15.3492 150.324 15.54C149.993 15.7259 149.72 15.9992 149.535 16.33C149.344 16.6869 149.244 17.0853 149.244 17.49C149.244 17.8947 149.344 18.2931 149.535 18.65C149.715 18.9851 149.989 19.2598 150.324 19.44C150.68 19.6307 151.079 19.7271 151.483 19.72C151.828 19.7338 152.172 19.6617 152.482 19.51C152.785 19.3683 153.051 19.1597 153.262 18.9L154.261 19.9C153.922 20.3115 153.486 20.6313 152.992 20.83C152.471 21.0523 151.909 21.1614 151.343 21.15C150.676 21.1265 150.026 20.9338 149.454 20.59Z" fill="#333333"/>
<path d="M158.048 18.12H156.929V20.93H155.36V13.98H156.979V16.85H158.138L159.976 14.02H161.685L159.357 17.35L161.715 20.96H159.876L158.048 18.12Z" fill="#333333"/>
<path d="M162.464 13.93H164.083V18.48L167.42 13.93H168.939V20.93H167.351V16.35L163.993 20.85H162.464V13.93Z" fill="#333333"/>
<path d="M170.678 13.93H172.287V18.48L175.634 13.93H177.153V20.93H175.554V16.35L172.217 20.85H170.678V13.93ZM171.947 11.93H173.056C173.056 12.42 173.346 12.66 173.886 12.66C173.999 12.672 174.114 12.6614 174.224 12.6288C174.334 12.5962 174.436 12.5422 174.525 12.47C174.596 12.401 174.653 12.3197 174.695 12.23C174.731 12.1342 174.748 12.0323 174.745 11.93H175.854C175.863 12.1455 175.826 12.3603 175.744 12.56C175.653 12.7565 175.52 12.9306 175.354 13.07C174.932 13.3579 174.424 13.4921 173.915 13.45C172.636 13.45 171.987 12.97 171.917 11.96L171.947 11.93Z" fill="#333333"/>
<path d="M68.0874 30.09H66.9782V32.85H65.3595V25.94H66.9782V28.76H68.1373L69.9759 25.94H71.6846L69.4263 29.3L71.7845 32.91H69.9459L68.0874 30.09Z" fill="#333333"/>
<path d="M73.8828 32.54C73.318 32.256 72.8438 31.8196 72.5139 31.28C72.1864 30.7185 72.0139 30.0801 72.0139 29.43C72.0139 28.7799 72.1864 28.1415 72.5139 27.58C72.8466 27.0427 73.3201 26.607 73.8828 26.32C74.4912 26.0108 75.164 25.8497 75.8464 25.8497C76.5288 25.8497 77.2014 26.0108 77.8098 26.32C78.3744 26.6044 78.8485 27.0407 79.1788 27.58C79.5062 28.1415 79.6788 28.7799 79.6788 29.43C79.6788 30.0801 79.5062 30.7185 79.1788 31.28C78.8514 31.8217 78.3766 32.2588 77.8098 32.54C77.197 32.8708 76.5074 33.033 75.8114 33.01C75.1397 33.0143 74.4773 32.8529 73.8828 32.54ZM76.9705 31.36C77.2987 31.1699 77.5682 30.8931 77.7498 30.56C77.9396 30.2046 78.039 29.8079 78.039 29.405C78.039 29.0021 77.9396 28.6054 77.7498 28.25C77.5697 27.9183 77.2996 27.6444 76.9705 27.46C76.6281 27.2699 76.243 27.1701 75.8514 27.17C75.4568 27.1714 75.0688 27.2711 74.7223 27.46C74.399 27.652 74.1305 27.924 73.9428 28.25C73.7588 28.6071 73.6628 29.0032 73.6628 29.405C73.6628 29.8068 73.7588 30.2029 73.9428 30.56C74.1302 30.8888 74.3986 31.1642 74.7223 31.36C75.0678 31.5504 75.4571 31.6469 75.8514 31.64C76.2351 31.6375 76.6124 31.5414 76.9505 31.36H76.9705Z" fill="#333333"/>
<path d="M86.9529 25.94V32.85H85.3441V27.2H82.946V28.66C82.9357 29.4688 82.8555 30.2751 82.7062 31.07C82.6229 31.5869 82.4058 32.073 82.0766 32.48C81.9118 32.6479 81.7146 32.7806 81.497 32.87C81.2783 32.9574 81.0421 32.9917 80.8076 32.97C80.5375 32.9685 80.2687 32.9315 80.0082 32.86L80.0982 31.49C80.1938 31.5091 80.2922 31.5091 80.3879 31.49C80.5831 31.4911 80.7718 31.4199 80.9175 31.29C81.0668 31.1685 81.1693 30.9988 81.2073 30.81C81.3905 30.1079 81.4844 29.3856 81.487 28.66L81.587 25.84L86.9529 25.94Z" fill="#333333"/>
<path d="M94.8966 25.94V32.85H93.2879V27.2H90.8897V28.66C90.8795 29.4688 90.7992 30.2751 90.6499 31.07C90.5669 31.5889 90.346 32.0759 90.0104 32.48C89.8509 32.6497 89.6567 32.7828 89.4409 32.87C89.2189 32.9583 88.9791 32.9925 88.7413 32.97C88.4713 32.9678 88.2027 32.9308 87.942 32.86L88.0419 31.49C88.1375 31.5099 88.2362 31.5099 88.3317 31.49C88.5269 31.4911 88.7155 31.4199 88.8612 31.29C89.0109 31.1704 89.1107 30.9993 89.141 30.81C89.3325 30.1094 89.43 29.3864 89.4309 28.66L89.5308 25.84L94.8966 25.94Z" fill="#333333"/>
<path d="M102.061 31.63V32.85H96.6453V25.94H101.931V27.2H98.254V28.71H101.501V29.98H98.254V31.63H102.061Z" fill="#333333"/>
<path d="M110.594 31.58V34.34H109.096V32.85H104.159V34.3H102.651V31.58H102.93C103.35 31.58 103.65 31.26 103.82 30.66C104.021 29.8314 104.129 28.9827 104.139 28.13L104.219 25.95H109.605V31.64L110.594 31.58ZM105.399 30.31C105.338 30.7661 105.17 31.2014 104.909 31.58H108.036V27.24H105.618V28.24C105.606 28.947 105.542 29.6521 105.429 30.35L105.399 30.31Z" fill="#333333"/>
<path d="M118.039 30.09H117.04V32.85H115.391V30.05H114.392L112.813 32.85H110.954L113.053 29.21L111.054 25.9H112.773L114.342 28.72H115.391V25.94H116.98V28.76H117.979L119.558 25.94H121.386L119.388 29.26L121.466 32.89H119.558L118.039 30.09Z" fill="#333333"/>
<path d="M71.8744 39.5V46.45H71.165V40.85L68.4271 45.56H68.0674L65.3195 40.9V46.45H64.6101V39.5H65.2495L68.2472 44.67L71.2449 39.5H71.8744Z" fill="#333333"/>
<path d="M79.1889 45.85V46.48H74.1927V39.48H78.999V40.11H74.9322V42.59H78.5594V43.22H74.9322V45.85H79.1889Z" fill="#333333"/>
<path d="M86.4132 43.27H84.9544V46.48H84.2348V43.27H82.776L80.6376 46.48H79.7783L82.1765 42.88L79.9582 39.5H80.7575L82.756 42.66H84.225V39.5H84.9444V42.66H86.4132L88.4117 39.5H89.2111L87.0227 42.85L89.4309 46.45H88.5716L86.4132 43.27Z" fill="#333333"/>
<path d="M95.3364 40.14C95.6982 40.4762 95.9464 40.9168 96.0467 41.4006C96.147 41.8845 96.0943 42.3875 95.8959 42.84C95.7696 43.1441 95.5787 43.4171 95.3364 43.64C94.7306 44.0938 93.9832 44.3171 93.228 44.27H91.3295V46.48H90.61V39.53H93.228C93.9814 39.4709 94.7308 39.6876 95.3364 40.14ZM94.7968 43.14C94.9791 42.9864 95.1235 42.7929 95.2188 42.5743C95.3142 42.3558 95.3577 42.1182 95.3463 41.88C95.3662 41.6338 95.325 41.3865 95.2264 41.16C95.1283 40.937 94.9816 40.7388 94.7968 40.58C94.336 40.2489 93.7739 40.0897 93.2081 40.13H91.3494V43.61H93.2081C93.7831 43.6494 94.3533 43.4828 94.8168 43.14H94.7968Z" fill="#333333"/>
<path d="M102.561 45.85V46.48H97.5646V39.48H102.401V40.11H98.4039V42.59H102.021V43.22H98.4039V45.85H102.561Z" fill="#333333"/>
<path d="M108.656 40.14H104.919V46.46H104.209V39.46H108.646L108.656 40.14Z" fill="#333333"/>
<path d="M109.925 39.5H110.674V45.28L115.161 39.5H115.83V46.45H115.081V40.68L110.594 46.45H109.965L109.925 39.5Z" fill="#333333"/>
<path d="M119.388 46.07C118.839 45.7811 118.383 45.3447 118.069 44.81C117.757 44.2577 117.592 43.6345 117.589 43C117.592 42.3624 117.757 41.736 118.069 41.18C118.383 40.6453 118.839 40.2089 119.388 39.92C119.969 39.601 120.623 39.439 121.286 39.45C121.951 39.4422 122.607 39.6003 123.195 39.91C123.739 40.2061 124.191 40.6452 124.504 41.18C124.818 41.7332 124.984 42.3586 124.984 42.995C124.984 43.6314 124.818 44.2569 124.504 44.81C124.191 45.3418 123.738 45.7775 123.195 46.07C122.608 46.3784 121.954 46.5395 121.291 46.5395C120.628 46.5395 119.975 46.3784 119.388 46.07ZM122.765 45.53C123.182 45.2926 123.527 44.9472 123.764 44.53C124.021 44.0717 124.155 43.5553 124.155 43.03C124.155 42.5048 124.021 41.9883 123.764 41.53C123.524 41.1155 123.179 40.7708 122.765 40.53C122.301 40.2806 121.783 40.15 121.256 40.15C120.733 40.15 120.218 40.2806 119.757 40.53C119.318 40.7621 118.949 41.1074 118.688 41.53C118.434 41.9889 118.3 42.5051 118.3 43.03C118.3 43.5549 118.434 44.0711 118.688 44.53C118.947 44.9549 119.316 45.3008 119.757 45.53C120.219 45.7764 120.734 45.9035 121.256 45.9C121.782 45.9035 122.301 45.7764 122.765 45.53Z" fill="#333333"/>
<path d="M132.528 39.5V46.45H131.798V43.23H127.382V46.45H126.642V39.5H127.382V42.61H131.758V39.5H132.528Z" fill="#333333"/>
<path d="M139.372 44.61H135.475L134.636 46.51H133.867L137.034 39.56H137.764L140.941 46.51H140.212L139.372 44.61ZM139.103 43.98L137.424 40.24L135.745 43.98H139.103Z" fill="#333333"/>
<path d="M147.846 39.5V46.45H147.116V40.13H143.739L143.659 42.47C143.639 43.2484 143.559 44.024 143.419 44.79C143.349 45.2709 143.157 45.7256 142.86 46.11C142.733 46.2527 142.576 46.3654 142.4 46.44C142.224 46.5189 142.032 46.5533 141.84 46.54C141.655 46.5413 141.47 46.5178 141.291 46.47L141.371 45.85C141.48 45.8697 141.591 45.8697 141.7 45.85C141.84 45.8606 141.979 45.8293 142.1 45.76C142.225 45.6993 142.335 45.6103 142.42 45.5C142.639 45.1762 142.783 44.807 142.84 44.42C142.938 43.7773 143.001 43.1296 143.029 42.48L143.119 39.48L147.846 39.5Z" fill="#333333"/>
<path d="M155.03 42.55C155.253 42.7554 155.427 43.0088 155.538 43.2912C155.648 43.5736 155.694 43.8776 155.67 44.18C155.69 44.5006 155.639 44.8217 155.52 45.12C155.398 45.4152 155.21 45.6785 154.97 45.89C154.396 46.3195 153.687 46.5288 152.972 46.48H150.194V39.53H150.923V42.02H153.132C153.808 41.9631 154.481 42.1512 155.03 42.55ZM154.441 45.46C154.616 45.3038 154.753 45.1086 154.84 44.89C154.931 44.6719 154.968 44.4354 154.95 44.2C154.95 43.13 154.321 42.6 152.952 42.6H150.953V45.85H152.952C153.48 45.8907 154.006 45.7379 154.431 45.42L154.441 45.46Z" fill="#333333"/>
<path d="M163.164 39.5V46.45H162.434V43.23H158.048V46.45H157.358V39.5H158.098V42.61H162.484V39.5H163.164Z" fill="#333333"/>
<path d="M170.348 42.55C170.57 42.7563 170.741 43.0102 170.85 43.2925C170.959 43.5749 171.003 43.8783 170.978 44.18C170.998 44.5006 170.947 44.8217 170.828 45.12C170.706 45.4152 170.518 45.6785 170.278 45.89C169.704 46.3195 168.995 46.5288 168.28 46.48H165.492V39.53H166.231V42.02H168.43C169.112 41.9618 169.793 42.1498 170.348 42.55ZM169.749 45.46C169.922 45.3017 170.059 45.1071 170.148 44.89C170.234 44.6706 170.272 44.4352 170.258 44.2C170.258 43.13 169.619 42.6 168.26 42.6H166.261V45.85H168.26C168.79 45.9044 169.322 45.766 169.759 45.46H169.749ZM172.207 39.46H172.936V46.45H172.207V39.46Z" fill="#333333"/>
<path d="M175.344 39.5H176.054V45.28L180.54 39.5H181.21V46.45H180.501V40.68L176.024 46.45H175.344V39.5ZM177.083 38.66C176.941 38.5447 176.828 38.3974 176.753 38.23C176.674 38.0682 176.633 37.8903 176.634 37.71H177.193C177.186 37.8307 177.21 37.9512 177.263 38.06C177.316 38.1678 177.391 38.2632 177.483 38.34C177.715 38.4895 177.986 38.5693 178.262 38.57C178.542 38.5695 178.815 38.4898 179.052 38.34C179.146 38.2654 179.221 38.1694 179.271 38.06C179.327 37.952 179.355 37.8315 179.351 37.71H179.901C179.904 37.8926 179.867 38.0737 179.791 38.24C179.707 38.4012 179.591 38.544 179.451 38.66C179.094 38.8762 178.685 38.9904 178.267 38.9904C177.85 38.9904 177.44 38.8762 177.083 38.66Z" fill="#333333"/>
<path d="M71.4248 57.85V60.12H70.7354V58.44H64.62V51.44H65.3495V57.85H69.5862V51.48H70.3157V57.85H71.4248Z" fill="#333333"/>
<path d="M77.8199 57.85V58.48H72.8237V51.48H77.64V52.11H73.5832V54.59H77.2004V55.23H73.5832V57.85H77.8199Z" fill="#333333"/>
<path d="M85.3041 51.46V58.46H84.5847V55.19H80.2281V58.41H79.4686V51.41H80.2281V54.52H84.6045V51.46H85.3041Z" fill="#333333"/>
<path d="M92.2787 52.1H89.8006V58.42H89.0712V52.1H86.613V51.47H92.2787V52.1Z" fill="#333333"/>
<path d="M98.2841 52.1C98.524 52.321 98.7146 52.5902 98.8436 52.89C98.9801 53.2054 99.0483 53.5463 99.0435 53.89C99.0498 54.2339 98.9816 54.575 98.8436 54.89C98.7123 55.1914 98.5221 55.4634 98.2841 55.69C97.679 56.1376 96.9371 56.3604 96.1857 56.32H94.2771V58.53H93.5477V51.53H96.1657C96.9168 51.4649 97.6668 51.6667 98.2841 52.1ZM97.7444 55.1C97.9192 54.9337 98.0583 54.7336 98.1534 54.5119C98.2485 54.2901 98.2976 54.0513 98.2976 53.81C98.2976 53.5687 98.2485 53.3299 98.1534 53.1081C98.0583 52.8864 97.9192 52.6863 97.7444 52.52C97.2875 52.1888 96.7285 52.0295 96.1657 52.07H94.2972V55.56H96.1657C96.7255 55.6005 97.2823 55.4488 97.7444 55.13V55.1Z" fill="#333333"/>
<path d="M66.9082 67.19H65.3195V70.39H64.6001V63.39H65.3195V66.55H66.9082L69.2664 63.39H70.0758L67.4779 66.78L70.2258 70.37H69.4263L66.9082 67.19Z" fill="#333333"/>
<path d="M72.5539 69.99C72.0014 69.6878 71.5404 69.2424 71.2192 68.7005C70.8981 68.1585 70.7286 67.5401 70.7286 66.91C70.7286 66.2799 70.8981 65.6615 71.2192 65.1195C71.5404 64.5776 72.0014 64.1322 72.5539 63.83C73.142 63.5203 73.798 63.3622 74.4624 63.37C75.1244 63.3559 75.7786 63.5145 76.3609 63.83C76.9071 64.1219 77.3632 64.5576 77.6799 65.09C77.9943 65.645 78.1597 66.272 78.1597 66.91C78.1597 67.548 77.9943 68.175 77.6799 68.73C77.3661 69.2647 76.9092 69.7011 76.3609 69.99C75.7786 70.3055 75.1244 70.4641 74.4624 70.45C73.798 70.4578 73.142 70.2997 72.5539 69.99ZM75.9413 69.42C76.3787 69.1893 76.7448 68.8435 77.0004 68.42C77.2587 67.9623 77.3945 67.4456 77.3945 66.92C77.3945 66.3944 77.2587 65.8777 77.0004 65.42C76.7448 64.9965 76.3787 64.6507 75.9413 64.42C75.4825 64.1678 74.9658 64.0403 74.4424 64.05C73.9161 64.0417 73.3965 64.1692 72.9336 64.42C72.4962 64.6507 72.13 64.9965 71.8744 65.42C71.6161 65.8777 71.4804 66.3944 71.4804 66.92C71.4804 67.4456 71.6161 67.9623 71.8744 68.42C72.13 68.8435 72.4962 69.1893 72.9336 69.42C73.3965 69.661 73.9106 69.7869 74.4324 69.7869C74.9542 69.7869 75.4684 69.661 75.9313 69.42H75.9413Z" fill="#333333"/>
<path d="M87.1626 63.42V70.42H86.4132V64.79L83.6553 69.48H83.3056L80.5977 64.85V70.4H79.8882V63.4H80.5177L83.5654 68.57L86.5631 63.4L87.1626 63.42Z" fill="#333333"/>
<path d="M95.4062 63.42V70.42H94.6768V64.05H90.2302V70.37H89.5107V63.37L95.4062 63.42Z" fill="#333333"/>
<path d="M102.721 69.75V70.39H97.7244V63.39H102.531V64.03H98.4639V66.55H102.081V67.18H98.4639V69.77L102.721 69.75Z" fill="#333333"/>
<path d="M108.946 64.05H106.488V70.37H105.758V64.05H103.29V63.42H108.946V64.05Z" fill="#333333"/>
<path d="M115.201 69.75V70.39H110.205V63.39H115.011V64.03H110.944V66.55H114.571V67.18H110.944V69.77L115.201 69.75Z" fill="#333333"/>
<path d="M122.695 63.42V70.42H121.966V67.15H117.579V70.37H116.84V63.37H117.579V66.47H121.966V63.37L122.695 63.42Z" fill="#333333"/>
<path d="M131.848 69.75V72.03H131.159V70.39H125.053V63.39H125.783V69.71H130.009V63.44H130.739V69.76L131.848 69.75Z" fill="#333333"/>
<path d="M133.377 63.42H134.106V69.2L138.583 63.42H139.272V70.42H138.523V64.6L134.036 70.37H133.377V63.42Z" fill="#333333"/>
<path d="M141.561 63.42H142.3V69.2L146.777 63.42H147.416V70.42H146.687V64.6L142.21 70.37H141.561V63.42ZM143.299 62.57C143.16 62.4559 143.047 62.3125 142.969 62.15C142.889 61.9853 142.852 61.8031 142.86 61.62H143.409C143.402 61.7407 143.426 61.8612 143.479 61.97C143.533 62.0799 143.612 62.1757 143.709 62.25C143.932 62.4183 144.209 62.5 144.488 62.48C144.766 62.4902 145.04 62.4094 145.268 62.25C145.362 62.1754 145.437 62.0794 145.488 61.97C145.543 61.862 145.571 61.7415 145.567 61.62H146.117C146.125 61.8031 146.087 61.9853 146.007 62.15C145.929 62.315 145.812 62.459 145.667 62.57C145.323 62.8108 144.908 62.9304 144.488 62.91C144.067 62.9408 143.648 62.828 143.299 62.59V62.57Z" fill="#333333"/>
<path d="M51.0705 13.96H46.9137L51.9098 1.89999H56.0767L51.0705 13.96Z" fill="#33CCFF"/>
<path d="M56.1167 32.97H51.9499L46.9537 18.07H51.1106L56.1167 32.97Z" fill="#333333"/>
<path d="M16.3473 32.97V28.85H0V32.99L16.3473 32.97Z" fill="#33CCFF"/>
<path d="M12.1906 1.90001V20.85H4.19674V1.85001H0.0400391V25.02H16.3874V1.90001H12.1906Z" fill="#333333"/>
<path d="M0 39.34V70.43H4.15682V43.48H6.09526V70.43H10.2521V43.48H12.1905V70.43H16.3473V39.34H0Z" fill="#333333"/>
<path d="M37.1512 39.34H32.9945V64.77H37.1512V39.34Z" fill="#333333"/>
<path d="M24.9608 66.28V39.34H20.804V70.42H31.4558V66.28H24.9608Z" fill="#333333"/>
<path d="M41.7378 32.97H45.9045V1.89999H41.7378V32.97Z" fill="#333333"/>
<path d="M51.0705 51.4H46.9137L51.9098 39.34H56.0767L51.0705 51.4Z" fill="#333333"/>
<path d="M56.1167 70.41H51.9499L46.9537 55.5H51.1106L56.1167 70.41Z" fill="#333333"/>
<path d="M41.7378 70.41H45.9045V39.34H41.7378V70.41Z" fill="#333333"/>
<path d="M32.9946 1.89999H20.804V32.97H24.9608V6.05H32.9546V32.97H37.1214V1.89999H32.9946Z" fill="#333333"/>
<path d="M37.1512 66.28H32.9945V70.43H37.1512V66.28Z" fill="#E6362D"/>
</svg>
