<svg width="1109" height="463" viewBox="0 0 1109 463" fill="none" xmlns="http://www.w3.org/2000/svg">
<rect width="1108.07" height="219.488" rx="50.3909" fill="#31263B"/>
<path d="M71.0088 152.519H85.1823V76.5898H129.601V152.519H143.796V65.3691H71.0088V152.519Z" fill="#FBFBFA"/>
<path d="M450.072 76.0961C444.14 73.1009 437.565 71.6021 430.921 71.7302H429.466V65.002H415.503V71.7302H413.942C407.295 71.5992 400.718 73.1058 394.791 76.1172C389.358 78.9019 384.808 83.1453 381.651 88.3714C378.375 93.9063 376.717 100.249 376.863 106.679C376.719 113.033 378.371 119.298 381.63 124.754C384.797 129.925 389.349 134.104 394.77 136.819C400.718 139.787 407.296 141.271 413.942 141.142H415.503V152.426H429.466V141.142H430.921C437.565 141.271 444.14 139.772 450.072 136.777C455.484 134.017 460.025 129.812 463.191 124.628C466.444 119.169 468.096 112.905 467.958 106.552C468.102 100.145 466.451 93.826 463.191 88.3081C460.04 83.0955 455.497 78.8661 450.072 76.0961ZM415.503 129.774H413.942C409.6 129.9 405.294 128.943 401.414 126.99C398.01 125.204 395.225 122.433 393.42 119.039C391.478 115.214 390.522 110.966 390.636 106.679C390.509 102.298 391.458 97.953 393.399 94.0239C395.169 90.582 397.942 87.7579 401.351 85.9248C405.266 83.9371 409.617 82.9652 414.006 83.0985H415.566L415.503 129.774ZM451.359 118.996C449.59 122.399 446.833 125.185 443.45 126.99C439.576 128.941 435.278 129.898 430.942 129.774H429.424V83.0985H430.942C435.291 82.9507 439.607 83.901 443.492 85.8615C446.883 87.6948 449.64 90.5108 451.401 93.9396C453.321 97.8379 454.262 102.145 454.143 106.489C454.271 110.82 453.329 115.116 451.401 118.996H451.359Z" fill="#FBFBFA"/>
<path d="M478.959 76.6703H508.34V152.516H522.534V76.6703H551.978V65.3652H478.959V76.6703Z" fill="#FBFBFA"/>
<path d="M691.804 114.509H722.429V103.225H691.804V76.6703H739.218V65.3652H677.567V103.225H666.325V114.509H677.567V152.516H739.766V141.189H691.804V114.509Z" fill="#FBFBFA"/>
<path d="M309.545 65.002C284.236 65.002 263.692 84.7015 263.692 108.936C263.692 133.17 284.257 152.869 309.545 152.869C334.834 152.869 355.42 133.149 355.42 108.936C355.42 84.7226 334.834 65.002 309.545 65.002ZM309.545 140.404C291.428 140.404 276.685 126.294 276.685 108.936C276.685 91.5773 291.449 77.446 309.545 77.446C327.642 77.446 342.406 91.5773 342.406 108.936C342.406 126.294 327.663 140.404 309.545 140.404Z" fill="#FBFBFA"/>
<path d="M887.008 114.509H903.881V103.225H887.008V76.6703H934.422V65.3652H872.771V103.225H847.862V114.509H872.771V152.516H934.97V141.189H887.008V114.509Z" fill="#FBFBFA"/>
<path d="M1008.29 65.3652H967.875V103.33H950.074V114.445H967.875V152.41H982.091V114.445H1008.24C1021.41 114.445 1032.1 104.574 1032.1 92.4257V87.2794C1032.14 75.3204 1021.45 65.3652 1008.29 65.3652ZM1018.05 94.3028C1017.95 96.7927 1016.86 99.1399 1015.03 100.832C1013.2 102.523 1010.78 103.421 1008.29 103.33H982.133V76.6703H1008.29C1010.78 76.5789 1013.2 77.4772 1015.03 79.1688C1016.86 80.8604 1017.95 83.2077 1018.05 85.6975V94.3028Z" fill="#FBFBFA"/>
<path d="M623.551 65.3652H583.33V103.33H565.528V114.445H583.33V152.41H597.545V114.445H623.699C636.86 114.445 647.553 104.574 647.553 92.4257V87.2794C647.406 75.3204 636.712 65.3652 623.551 65.3652ZM633.317 94.3028C633.212 96.7927 632.127 99.1399 630.297 100.832C628.467 102.523 626.042 103.421 623.551 103.33H597.398V76.6703H623.551C626.042 76.5789 628.467 77.4772 630.297 79.1688C632.127 80.8604 633.212 83.2077 633.317 85.6975V94.3028Z" fill="#FBFBFA"/>
<path d="M222.866 65.3652H182.581V152.516H196.818V114.551H222.971C236.132 114.551 246.826 104.68 246.826 92.5312V87.3848C246.72 75.3205 236.027 65.3652 222.866 65.3652ZM232.631 94.3028C232.527 96.7927 231.441 99.1399 229.611 100.832C227.781 102.523 225.356 103.421 222.866 103.33H196.712V76.6703H222.866C225.356 76.5789 227.781 77.4772 229.611 79.1688C231.441 80.8604 232.527 83.2077 232.631 85.6975V94.3028Z" fill="#FBFBFA"/>
<path d="M823.176 65.3652L790.168 103.225H781.183V65.3652H766.946V152.516H781.183L781.225 114.509H790.126L820.772 152.494H838.236L801.726 107.928L839.48 65.3652H823.176Z" fill="#FBFBFA"/>
<path d="M941.123 447.206V438.892L940.331 437.071V422.186C940.331 419.546 939.513 417.488 937.876 416.01C936.293 414.532 933.838 413.793 930.513 413.793C928.243 413.793 926 414.162 923.783 414.901C921.618 415.587 919.771 416.538 918.24 417.752L913.806 409.121C916.129 407.485 918.926 406.218 922.199 405.321C925.472 404.423 928.797 403.975 932.176 403.975C938.668 403.975 943.709 405.505 947.299 408.567C950.888 411.629 952.683 416.406 952.683 422.898V447.206H941.123ZM928.137 447.839C924.812 447.839 921.962 447.285 919.586 446.177C917.211 445.015 915.39 443.458 914.123 441.505C912.856 439.552 912.223 437.361 912.223 434.933C912.223 432.4 912.83 430.183 914.044 428.282C915.311 426.382 917.29 424.904 919.982 423.848C922.674 422.74 926.184 422.186 930.513 422.186H941.835V429.391H931.859C928.956 429.391 926.95 429.866 925.841 430.816C924.786 431.766 924.258 432.954 924.258 434.379C924.258 435.963 924.865 437.229 926.079 438.18C927.346 439.077 929.061 439.526 931.225 439.526C933.284 439.526 935.132 439.051 936.768 438.1C938.404 437.098 939.592 435.646 940.331 433.746L942.231 439.446C941.334 442.191 939.698 444.276 937.322 445.702C934.947 447.127 931.885 447.839 928.137 447.839Z" fill="#31263B"/>
<path d="M857.508 447.128L858.141 436.993C858.458 437.046 858.775 437.099 859.091 437.152C859.408 437.152 859.698 437.152 859.962 437.152C861.44 437.152 862.602 436.729 863.446 435.885C864.291 435.04 864.924 433.905 865.346 432.48C865.769 431.002 866.059 429.339 866.217 427.492C866.429 425.644 866.587 423.718 866.692 421.712L867.326 404.609H903.748V447.207H891.396V411.735L894.167 414.744H875.481L878.094 411.577L877.54 422.266C877.382 426.067 877.065 429.551 876.59 432.718C876.168 435.885 875.455 438.63 874.452 440.952C873.449 443.222 872.103 444.99 870.414 446.257C868.725 447.471 866.561 448.078 863.921 448.078C862.971 448.078 861.968 447.999 860.913 447.841C859.857 447.682 858.722 447.445 857.508 447.128Z" fill="#31263B"/>
<path d="M840.609 447.206V438.892L839.817 437.071V422.186C839.817 419.546 838.999 417.488 837.363 416.01C835.779 414.532 833.325 413.793 829.999 413.793C827.729 413.793 825.486 414.162 823.269 414.901C821.105 415.587 819.257 416.538 817.727 417.752L813.293 409.121C815.615 407.485 818.413 406.218 821.685 405.321C824.958 404.423 828.284 403.975 831.662 403.975C838.155 403.975 843.196 405.505 846.785 408.567C850.374 411.629 852.169 416.406 852.169 422.898V447.206H840.609ZM827.624 447.839C824.298 447.839 821.448 447.285 819.073 446.177C816.697 445.015 814.876 443.458 813.609 441.505C812.342 439.552 811.709 437.361 811.709 434.933C811.709 432.4 812.316 430.183 813.53 428.282C814.797 426.382 816.776 424.904 819.468 423.848C822.161 422.74 825.671 422.186 829.999 422.186H841.322V429.391H831.345C828.442 429.391 826.436 429.866 825.328 430.816C824.272 431.766 823.744 432.954 823.744 434.379C823.744 435.963 824.351 437.229 825.565 438.18C826.832 439.077 828.548 439.526 830.712 439.526C832.77 439.526 834.618 439.051 836.254 438.1C837.891 437.098 839.078 435.646 839.817 433.746L841.718 439.446C840.82 442.191 839.184 444.276 836.808 445.702C834.433 447.127 831.372 447.839 827.624 447.839Z" fill="#31263B"/>
<path d="M760.129 447.207V404.609H772.402V421.237H790.929V404.609H803.281V447.207H790.929V431.292H772.402V447.207H760.129Z" fill="#31263B"/>
<path d="M728.284 447.839C723.745 447.839 719.707 446.889 716.17 444.989C712.686 443.089 709.915 440.502 707.856 437.23C705.851 433.904 704.848 430.13 704.848 425.907C704.848 421.631 705.851 417.857 707.856 414.585C709.915 411.259 712.686 408.673 716.17 406.825C719.707 404.925 723.745 403.975 728.284 403.975C732.771 403.975 736.783 404.925 740.32 406.825C743.856 408.673 746.627 411.233 748.633 414.505C750.639 417.778 751.642 421.579 751.642 425.907C751.642 430.13 750.639 433.904 748.633 437.23C746.627 440.502 743.856 443.089 740.32 444.989C736.783 446.889 732.771 447.839 728.284 447.839ZM728.284 437.705C730.343 437.705 732.191 437.229 733.827 436.279C735.463 435.329 736.757 433.983 737.707 432.241C738.657 430.447 739.132 428.335 739.132 425.907C739.132 423.426 738.657 421.315 737.707 419.573C736.757 417.831 735.463 416.485 733.827 415.535C732.191 414.585 730.343 414.109 728.284 414.109C726.226 414.109 724.378 414.585 722.742 415.535C721.106 416.485 719.786 417.831 718.783 419.573C717.833 421.315 717.358 423.426 717.358 425.907C717.358 428.335 717.833 430.447 718.783 432.241C719.786 433.983 721.106 435.329 722.742 436.279C724.378 437.229 726.226 437.705 728.284 437.705Z" fill="#31263B"/>
<path d="M682.284 447.839C677.691 447.839 673.601 446.916 670.011 445.068C666.422 443.168 663.598 440.555 661.539 437.23C659.533 433.904 658.53 430.13 658.53 425.907C658.53 421.631 659.533 417.857 661.539 414.585C663.598 411.259 666.422 408.673 670.011 406.825C673.601 404.925 677.691 403.975 682.284 403.975C686.771 403.975 690.677 404.925 694.002 406.825C697.328 408.673 699.782 411.338 701.366 414.822L691.785 419.969C690.677 417.963 689.278 416.485 687.589 415.535C685.952 414.585 684.158 414.109 682.205 414.109C680.093 414.109 678.193 414.585 676.504 415.535C674.815 416.485 673.469 417.831 672.466 419.573C671.516 421.315 671.041 423.426 671.041 425.907C671.041 428.388 671.516 430.499 672.466 432.241C673.469 433.983 674.815 435.329 676.504 436.279C678.193 437.229 680.093 437.705 682.205 437.705C684.158 437.705 685.952 437.256 687.589 436.359C689.278 435.408 690.677 433.904 691.785 431.845L701.366 437.071C699.782 440.502 697.328 443.168 694.002 445.068C690.677 446.916 686.771 447.839 682.284 447.839Z" fill="#31263B"/>
<path d="M632.128 447.839C628.539 447.839 625.398 447.048 622.706 445.464C620.014 443.88 617.902 441.479 616.371 438.259C614.894 434.986 614.154 430.869 614.154 425.907C614.154 420.892 614.867 416.775 616.292 413.555C617.718 410.335 619.776 407.934 622.468 406.35C625.16 404.766 628.38 403.975 632.128 403.975C636.14 403.975 639.729 404.898 642.896 406.746C646.116 408.541 648.65 411.074 650.497 414.347C652.398 417.62 653.348 421.473 653.348 425.907C653.348 430.394 652.398 434.274 650.497 437.546C648.65 440.819 646.116 443.353 642.896 445.147C639.729 446.942 636.14 447.839 632.128 447.839ZM606.949 462.567V404.608H618.747V413.318L618.509 425.986L619.301 438.576V462.567H606.949ZM629.99 437.705C632.049 437.705 633.87 437.229 635.453 436.279C637.09 435.329 638.383 433.983 639.333 432.241C640.336 430.447 640.838 428.335 640.838 425.907C640.838 423.426 640.336 421.315 639.333 419.573C638.383 417.831 637.09 416.485 635.453 415.535C633.87 414.585 632.049 414.109 629.99 414.109C627.931 414.109 626.084 414.585 624.448 415.535C622.811 416.485 621.518 417.831 620.568 419.573C619.618 421.315 619.143 423.426 619.143 425.907C619.143 428.335 619.618 430.447 620.568 432.241C621.518 433.983 622.811 435.329 624.448 436.279C626.084 437.229 627.931 437.705 629.99 437.705Z" fill="#31263B"/>
<path d="M576.974 447.839C572.118 447.839 567.842 446.889 564.147 444.989C560.505 443.089 557.681 440.502 555.675 437.23C553.669 433.904 552.666 430.13 552.666 425.907C552.666 421.631 553.643 417.857 555.596 414.585C557.601 411.259 560.32 408.673 563.751 406.825C567.182 404.925 571.062 403.975 575.39 403.975C579.56 403.975 583.308 404.872 586.634 406.667C590.012 408.409 592.677 410.942 594.631 414.268C596.584 417.54 597.56 421.473 597.56 426.065C597.56 426.54 597.534 427.095 597.481 427.728C597.428 428.309 597.375 428.863 597.323 429.391H562.722V422.186H590.83L586.079 424.323C586.079 422.106 585.631 420.18 584.733 418.543C583.836 416.907 582.595 415.64 581.012 414.743C579.428 413.793 577.581 413.318 575.469 413.318C573.358 413.318 571.484 413.793 569.848 414.743C568.264 415.64 567.024 416.933 566.126 418.623C565.229 420.259 564.78 422.212 564.78 424.482V426.382C564.78 428.705 565.282 430.763 566.285 432.558C567.34 434.3 568.792 435.646 570.639 436.596C572.54 437.493 574.757 437.942 577.291 437.942C579.56 437.942 581.54 437.599 583.229 436.913C584.971 436.227 586.554 435.197 587.98 433.825L594.551 440.951C592.598 443.168 590.144 444.883 587.188 446.097C584.232 447.259 580.827 447.839 576.974 447.839Z" fill="#31263B"/>
<path d="M501.954 447.207V404.609H544.314V447.207H531.963V411.973L534.734 414.744H511.455L514.227 411.973V447.207H501.954Z" fill="#31263B"/>
<path d="M456.654 447.207V433.034L458.396 435.014H446.599C440.476 435.014 435.672 433.747 432.188 431.213C428.704 428.68 426.963 425.037 426.963 420.287C426.963 415.219 428.784 411.34 432.426 408.647C436.121 405.955 441.083 404.609 447.311 404.609H467.66V447.207H456.654ZM426.329 447.207L437.652 430.976H450.241L439.473 447.207H426.329ZM456.654 429.234V411.498L458.396 414.665H447.549C445.015 414.665 443.036 415.14 441.611 416.09C440.238 417.04 439.552 418.571 439.552 420.683C439.552 424.747 442.165 426.779 447.391 426.779H458.396L456.654 429.234Z" fill="#31263B"/>
<path d="M373.589 447.207V404.609H385.861V429.946L406.606 404.609H417.929V447.207H405.656V421.87L384.991 447.207H373.589Z" fill="#31263B"/>
<path d="M340.333 447.207V411.894L343.105 414.744H325.923V404.609H367.016V414.744H349.835L352.606 411.894V447.207H340.333Z" fill="#31263B"/>
<path d="M275.003 447.207V404.609H287.276V429.946L308.02 404.609H319.343V447.207H307.07V421.87L286.405 447.207H275.003Z" fill="#31263B"/>
<path d="M225.761 447.207V404.609H247.535C252.866 404.609 257.036 405.586 260.045 407.539C263.054 409.439 264.558 412.131 264.558 415.615C264.558 419.099 263.133 421.844 260.282 423.85C257.485 425.803 253.763 426.779 249.118 426.779L250.385 423.929C255.558 423.929 259.412 424.879 261.945 426.779C264.532 428.68 265.825 431.451 265.825 435.093C265.825 438.841 264.4 441.797 261.549 443.961C258.699 446.125 254.344 447.207 248.485 447.207H225.761ZM237.083 438.814H247.456C249.725 438.814 251.414 438.445 252.523 437.706C253.684 436.914 254.265 435.726 254.265 434.143C254.265 432.507 253.737 431.319 252.681 430.58C251.626 429.788 249.963 429.392 247.693 429.392H237.083V438.814ZM237.083 422.108H246.426C248.59 422.108 250.2 421.712 251.256 420.92C252.365 420.128 252.919 418.993 252.919 417.515C252.919 415.985 252.365 414.85 251.256 414.111C250.2 413.372 248.59 413.002 246.426 413.002H237.083V422.108Z" fill="#31263B"/>
<path d="M195.708 448C192.435 448 189.162 447.657 185.89 446.971C182.67 446.285 179.687 445.255 176.942 443.883L180.268 435.252C182.432 436.308 184.781 437.126 187.315 437.707C189.901 438.235 192.514 438.499 195.153 438.499C197.054 438.499 198.69 438.314 200.062 437.944C201.488 437.522 202.57 436.941 203.309 436.202C204.048 435.464 204.417 434.566 204.417 433.51C204.417 432.138 203.837 431.109 202.675 430.422C201.514 429.683 199.825 429.314 197.608 429.314H188.898V421.634H196.579C198.004 421.634 199.218 421.475 200.221 421.159C201.224 420.842 201.963 420.393 202.438 419.813C202.966 419.179 203.23 418.44 203.23 417.596C203.23 416.698 202.913 415.933 202.279 415.299C201.646 414.666 200.722 414.191 199.508 413.874C198.294 413.505 196.763 413.32 194.916 413.32C192.804 413.32 190.614 413.584 188.344 414.112C186.074 414.587 183.752 415.299 181.376 416.25L178.368 407.698C181.165 406.537 183.936 405.613 186.681 404.927C189.426 404.241 192.145 403.871 194.837 403.819C198.796 403.713 202.359 404.135 205.526 405.085C208.693 406.036 211.174 407.408 212.968 409.203C214.816 410.997 215.74 413.188 215.74 415.774C215.74 417.833 215.106 419.681 213.839 421.317C212.625 422.953 210.936 424.247 208.772 425.197C206.608 426.094 204.18 426.543 201.488 426.543L201.804 424.088C206.502 424.088 210.197 425.038 212.889 426.939C215.581 428.786 216.927 431.32 216.927 434.54C216.927 437.285 215.977 439.686 214.077 441.745C212.23 443.751 209.696 445.308 206.476 446.417C203.309 447.472 199.719 448 195.708 448Z" fill="#31263B"/>
<path d="M159.397 447.206V438.892L158.605 437.071V422.186C158.605 419.546 157.787 417.488 156.151 416.01C154.567 414.532 152.113 413.793 148.787 413.793C146.517 413.793 144.274 414.162 142.057 414.901C139.893 415.587 138.045 416.538 136.515 417.752L132.081 409.121C134.403 407.485 137.201 406.218 140.474 405.321C143.746 404.423 147.072 403.975 150.45 403.975C156.943 403.975 161.984 405.505 165.573 408.567C169.162 411.629 170.957 416.406 170.957 422.898V447.206H159.397ZM146.412 447.839C143.086 447.839 140.236 447.285 137.861 446.177C135.485 445.015 133.664 443.458 132.397 441.505C131.13 439.552 130.497 437.361 130.497 434.933C130.497 432.4 131.104 430.183 132.318 428.282C133.585 426.382 135.564 424.904 138.257 423.848C140.949 422.74 144.459 422.186 148.787 422.186H160.11V429.391H150.133C147.23 429.391 145.224 429.866 144.116 430.816C143.06 431.766 142.532 432.954 142.532 434.379C142.532 435.963 143.139 437.229 144.353 438.18C145.62 439.077 147.336 439.526 149.5 439.526C151.559 439.526 153.406 439.051 155.042 438.1C156.679 437.098 157.866 435.646 158.605 433.746L160.506 439.446C159.608 442.191 157.972 444.276 155.597 445.702C153.221 447.127 150.16 447.839 146.412 447.839Z" fill="#31263B"/>
<path d="M104.715 447.839C101.125 447.839 97.9847 447.048 95.2926 445.464C92.6005 443.88 90.4891 441.479 88.9583 438.259C87.4804 434.986 86.7414 430.869 86.7414 425.907C86.7414 420.892 87.454 416.775 88.8792 413.555C90.3044 410.335 92.363 407.934 95.0551 406.35C97.7471 404.766 100.967 403.975 104.715 403.975C108.727 403.975 112.316 404.898 115.483 406.746C118.703 408.541 121.237 411.074 123.084 414.347C124.984 417.62 125.935 421.473 125.935 425.907C125.935 430.394 124.984 434.274 123.084 437.546C121.237 440.819 118.703 443.353 115.483 445.147C112.316 446.942 108.727 447.839 104.715 447.839ZM79.5361 462.567V404.608H91.3337V413.318L91.0962 425.986L91.8879 438.576V462.567H79.5361ZM102.577 437.705C104.636 437.705 106.457 437.229 108.04 436.279C109.677 435.329 110.97 433.983 111.92 432.241C112.923 430.447 113.424 428.335 113.424 425.907C113.424 423.426 112.923 421.315 111.92 419.573C110.97 417.831 109.677 416.485 108.04 415.535C106.457 414.585 104.636 414.109 102.577 414.109C100.518 414.109 98.6709 414.585 97.0345 415.535C95.3982 416.485 94.1049 417.831 93.1548 419.573C92.2047 421.315 91.7296 423.426 91.7296 425.907C91.7296 428.335 92.2047 430.447 93.1548 432.241C94.1049 433.983 95.3982 435.329 97.0345 436.279C98.6709 437.229 100.518 437.705 102.577 437.705Z" fill="#31263B"/>
<path d="M0.978516 447.207V404.609H13.2511V429.946L33.9959 404.609H45.3184V447.207H33.0457V421.87L12.3802 447.207H0.978516Z" fill="#31263B"/>
<path d="M1063.2 351.397V308.799H1075.47V334.136L1096.21 308.799H1107.54V351.397H1095.26V326.06L1074.6 351.397H1063.2Z" fill="#31263B"/>
<path d="M1042.55 351.397L1028.3 331.206L1038.35 325.268L1057.12 351.397H1042.55ZM1012.38 351.397V308.799H1024.74V351.397H1012.38ZM1021.09 335.244V325.347H1035.98V335.244H1021.09ZM1039.54 331.523L1027.98 330.256L1042.95 308.799H1056.09L1039.54 331.523Z" fill="#31263B"/>
<path d="M963.142 351.397V308.799H984.916C990.247 308.799 994.417 309.775 997.426 311.728C1000.43 313.629 1001.94 316.321 1001.94 319.805C1001.94 323.288 1000.51 326.033 997.663 328.039C994.866 329.992 991.144 330.969 986.499 330.969L987.766 328.118C992.939 328.118 996.792 329.068 999.326 330.969C1001.91 332.869 1003.21 335.64 1003.21 339.282C1003.21 343.03 1001.78 345.986 998.93 348.15C996.08 350.315 991.725 351.397 985.866 351.397H963.142ZM974.464 343.004H984.836C987.106 343.004 988.795 342.634 989.904 341.895C991.065 341.104 991.646 339.916 991.646 338.332C991.646 336.696 991.118 335.508 990.062 334.769C989.006 333.978 987.344 333.582 985.074 333.582H974.464V343.004ZM974.464 326.297H983.807C985.971 326.297 987.581 325.901 988.637 325.11C989.746 324.318 990.3 323.183 990.3 321.705C990.3 320.174 989.746 319.039 988.637 318.3C987.581 317.561 985.971 317.192 983.807 317.192H974.464V326.297Z" fill="#31263B"/>
<path d="M931.264 352.031C926.724 352.031 922.686 351.081 919.15 349.18C915.666 347.28 912.895 344.694 910.836 341.421C908.83 338.095 907.827 334.321 907.827 330.098C907.827 325.823 908.83 322.049 910.836 318.776C912.895 315.45 915.666 312.864 919.15 311.016C922.686 309.116 926.724 308.166 931.264 308.166C935.751 308.166 939.762 309.116 943.299 311.016C946.836 312.864 949.607 315.424 951.613 318.697C953.619 321.969 954.622 325.77 954.622 330.098C954.622 334.321 953.619 338.095 951.613 341.421C949.607 344.694 946.836 347.28 943.299 349.18C939.762 351.081 935.751 352.031 931.264 352.031ZM931.264 341.896C933.323 341.896 935.17 341.421 936.806 340.471C938.443 339.521 939.736 338.175 940.686 336.433C941.636 334.638 942.111 332.527 942.111 330.098C942.111 327.617 941.636 325.506 940.686 323.764C939.736 322.022 938.443 320.676 936.806 319.726C935.17 318.776 933.323 318.301 931.264 318.301C929.205 318.301 927.358 318.776 925.722 319.726C924.085 320.676 922.765 322.022 921.763 323.764C920.812 325.506 920.337 327.617 920.337 330.098C920.337 332.527 920.812 334.638 921.763 336.433C922.765 338.175 924.085 339.521 925.722 340.471C927.358 341.421 929.205 341.896 931.264 341.896Z" fill="#31263B"/>
<path d="M879.835 351.397V316.083L882.606 318.934H865.425V308.799H906.518V318.934H889.337L892.108 316.083V351.397H879.835Z" fill="#31263B"/>
<path d="M840.414 352.031C835.875 352.031 831.837 351.081 828.3 349.18C824.816 347.28 822.045 344.694 819.986 341.421C817.981 338.095 816.978 334.321 816.978 330.098C816.978 325.823 817.981 322.049 819.986 318.776C822.045 315.45 824.816 312.864 828.3 311.016C831.837 309.116 835.875 308.166 840.414 308.166C844.901 308.166 848.913 309.116 852.449 311.016C855.986 312.864 858.757 315.424 860.763 318.697C862.769 321.969 863.772 325.77 863.772 330.098C863.772 334.321 862.769 338.095 860.763 341.421C858.757 344.694 855.986 347.28 852.449 349.18C848.913 351.081 844.901 352.031 840.414 352.031ZM840.414 341.896C842.473 341.896 844.321 341.421 845.957 340.471C847.593 339.521 848.886 338.175 849.837 336.433C850.787 334.638 851.262 332.527 851.262 330.098C851.262 327.617 850.787 325.506 849.837 323.764C848.886 322.022 847.593 320.676 845.957 319.726C844.321 318.776 842.473 318.301 840.414 318.301C838.356 318.301 836.508 318.776 834.872 319.726C833.236 320.676 831.916 322.022 830.913 323.764C829.963 325.506 829.488 327.617 829.488 330.098C829.488 332.527 829.963 334.638 830.913 336.433C831.916 338.175 833.236 339.521 834.872 340.471C836.508 341.421 838.356 341.896 840.414 341.896Z" fill="#31263B"/>
<path d="M781.577 351.397V308.799H815.703V318.934H791.079L793.85 316.242V351.397H781.577Z" fill="#31263B"/>
<path d="M755.355 345.854V318.934H741.419L741.182 324.397C741.076 326.667 740.944 328.831 740.786 330.89C740.628 332.948 740.311 334.822 739.836 336.511C739.413 338.148 738.78 339.546 737.935 340.708C737.091 341.816 735.956 342.582 734.531 343.004L722.337 341.262C723.868 341.262 725.109 340.813 726.059 339.916C727.009 338.966 727.748 337.673 728.276 336.036C728.804 334.347 729.199 332.447 729.463 330.335C729.727 328.171 729.912 325.901 730.018 323.526L730.572 308.799H767.707V345.854H755.355ZM720.912 360.581V341.262H773.803V360.581H762.322V351.397H732.393V360.581H720.912Z" fill="#31263B"/>
<path d="M694.824 352.031C690.284 352.031 686.246 351.081 682.709 349.18C679.225 347.28 676.454 344.694 674.396 341.421C672.39 338.095 671.387 334.321 671.387 330.098C671.387 325.823 672.39 322.049 674.396 318.776C676.454 315.45 679.225 312.864 682.709 311.016C686.246 309.116 690.284 308.166 694.824 308.166C699.31 308.166 703.322 309.116 706.859 311.016C710.395 312.864 713.167 315.424 715.172 318.697C717.178 321.969 718.181 325.77 718.181 330.098C718.181 334.321 717.178 338.095 715.172 341.421C713.167 344.694 710.395 347.28 706.859 349.18C703.322 351.081 699.31 352.031 694.824 352.031ZM694.824 341.896C696.882 341.896 698.73 341.421 700.366 340.471C702.002 339.521 703.296 338.175 704.246 336.433C705.196 334.638 705.671 332.527 705.671 330.098C705.671 327.617 705.196 325.506 704.246 323.764C703.296 322.022 702.002 320.676 700.366 319.726C698.73 318.776 696.882 318.301 694.824 318.301C692.765 318.301 690.917 318.776 689.281 319.726C687.645 320.676 686.325 322.022 685.322 323.764C684.372 325.506 683.897 327.617 683.897 330.098C683.897 332.527 684.372 334.638 685.322 336.433C686.325 338.175 687.645 339.521 689.281 340.471C690.917 341.421 692.765 341.896 694.824 341.896Z" fill="#31263B"/>
<path d="M620.669 351.397V308.799H663.029V351.397H650.678V316.162L653.449 318.934H630.17L632.942 316.162V351.397H620.669Z" fill="#31263B"/>
<path d="M533.694 351.397V308.799H546.6L562.674 337.936H557.527L574.709 308.799H586.269L586.427 351.397H575.263V321.467L577.163 322.734L562.515 347.279H557.289L542.562 321.863L544.858 321.309V351.397H533.694Z" fill="#31263B"/>
<path d="M503.624 352.031C498.768 352.031 494.492 351.081 490.797 349.18C487.155 347.28 484.331 344.694 482.325 341.421C480.319 338.095 479.316 334.321 479.316 330.098C479.316 325.823 480.293 322.049 482.246 318.776C484.252 315.45 486.97 312.864 490.401 311.016C493.832 309.116 497.712 308.166 502.041 308.166C506.211 308.166 509.958 309.063 513.284 310.858C516.662 312.6 519.328 315.134 521.281 318.459C523.234 321.732 524.21 325.664 524.21 330.257C524.21 330.732 524.184 331.286 524.131 331.92C524.079 332.5 524.026 333.054 523.973 333.582H489.372V326.377H517.48L512.73 328.515C512.73 326.298 512.281 324.371 511.384 322.735C510.486 321.098 509.246 319.832 507.662 318.934C506.079 317.984 504.231 317.509 502.12 317.509C500.008 317.509 498.134 317.984 496.498 318.934C494.915 319.832 493.674 321.125 492.777 322.814C491.879 324.45 491.431 326.403 491.431 328.673V330.573C491.431 332.896 491.932 334.955 492.935 336.749C493.991 338.491 495.442 339.837 497.29 340.787C499.19 341.685 501.407 342.134 503.941 342.134C506.211 342.134 508.19 341.79 509.879 341.104C511.621 340.418 513.205 339.389 514.63 338.016L521.202 345.142C519.249 347.359 516.794 349.075 513.838 350.289C510.882 351.45 507.478 352.031 503.624 352.031Z" fill="#31263B"/>
<path d="M451.305 351.397V316.083L454.076 318.934H436.895V308.799H477.988V318.934H460.806L463.578 316.083V351.397H451.305Z" fill="#31263B"/>
<path d="M415.698 352.031C411.105 352.031 407.015 351.107 403.425 349.26C399.836 347.359 397.012 344.746 394.953 341.421C392.947 338.095 391.944 334.321 391.944 330.098C391.944 325.823 392.947 322.049 394.953 318.776C397.012 315.45 399.836 312.864 403.425 311.016C407.015 309.116 411.105 308.166 415.698 308.166C420.185 308.166 424.091 309.116 427.416 311.016C430.742 312.864 433.196 315.53 434.78 319.013L425.199 324.16C424.091 322.154 422.692 320.676 421.003 319.726C419.366 318.776 417.572 318.301 415.619 318.301C413.507 318.301 411.607 318.776 409.918 319.726C408.229 320.676 406.883 322.022 405.88 323.764C404.93 325.506 404.455 327.617 404.455 330.098C404.455 332.579 404.93 334.691 405.88 336.433C406.883 338.175 408.229 339.521 409.918 340.471C411.607 341.421 413.507 341.896 415.619 341.896C417.572 341.896 419.366 341.447 421.003 340.55C422.692 339.6 424.091 338.095 425.199 336.037L434.78 341.263C433.196 344.694 430.742 347.359 427.416 349.26C424.091 351.107 420.185 352.031 415.698 352.031Z" fill="#31263B"/>
<path d="M339.218 351.397V308.799H351.49V334.136L372.235 308.799H383.558V351.397H371.285V326.06L350.619 351.397H339.218Z" fill="#31263B"/>
<path d="M312.63 352.031C308.038 352.031 303.947 351.107 300.358 349.26C296.768 347.359 293.944 344.746 291.886 341.421C289.88 338.095 288.877 334.321 288.877 330.098C288.877 325.823 289.88 322.049 291.886 318.776C293.944 315.45 296.768 312.864 300.358 311.016C303.947 309.116 308.038 308.166 312.63 308.166C317.117 308.166 321.023 309.116 324.349 311.016C327.674 312.864 330.129 315.53 331.712 319.013L322.132 324.16C321.023 322.154 319.625 320.676 317.935 319.726C316.299 318.776 314.504 318.301 312.551 318.301C310.44 318.301 308.54 318.776 306.85 319.726C305.161 320.676 303.815 322.022 302.812 323.764C301.862 325.506 301.387 327.617 301.387 330.098C301.387 332.579 301.862 334.691 302.812 336.433C303.815 338.175 305.161 339.521 306.85 340.471C308.54 341.421 310.44 341.896 312.551 341.896C314.504 341.896 316.299 341.447 317.935 340.55C319.625 339.6 321.023 338.095 322.132 336.037L331.712 341.263C330.129 344.694 327.674 347.359 324.349 349.26C321.023 351.107 317.117 352.031 312.63 352.031Z" fill="#31263B"/>
<path d="M240.061 352.031C236.471 352.031 233.33 351.239 230.638 349.655C227.946 348.072 225.835 345.67 224.304 342.45C222.826 339.178 222.087 335.06 222.087 330.098C222.087 325.084 222.8 320.967 224.225 317.747C225.65 314.527 227.709 312.125 230.401 310.541C233.093 308.958 236.313 308.166 240.061 308.166C244.072 308.166 247.662 309.09 250.829 310.937C254.049 312.732 256.582 315.266 258.43 318.538C260.33 321.811 261.28 325.664 261.28 330.098C261.28 334.585 260.33 338.465 258.43 341.738C256.582 345.01 254.049 347.544 250.829 349.339C247.662 351.133 244.072 352.031 240.061 352.031ZM214.882 366.758V308.799H226.679V317.509L226.442 330.178L227.234 342.767V366.758H214.882ZM237.923 341.896C239.981 341.896 241.802 341.421 243.386 340.471C245.022 339.521 246.316 338.175 247.266 336.433C248.269 334.638 248.77 332.527 248.77 330.098C248.77 327.617 248.269 325.506 247.266 323.764C246.316 322.022 245.022 320.676 243.386 319.726C241.802 318.776 239.981 318.301 237.923 318.301C235.864 318.301 234.017 318.776 232.38 319.726C230.744 320.676 229.451 322.022 228.501 323.764C227.55 325.506 227.075 327.617 227.075 330.098C227.075 332.527 227.55 334.638 228.501 336.433C229.451 338.175 230.744 339.521 232.38 340.471C234.017 341.421 235.864 341.896 237.923 341.896Z" fill="#31263B"/>
<path d="M181.688 351.397V316.083L184.459 318.934H167.277V308.799H208.371V318.934H191.189L193.96 316.083V351.397H181.688Z" fill="#31263B"/>
<path d="M117.61 351.397V308.799H129.883V325.426H148.411V308.799H160.763V351.397H148.411V335.482H129.883V351.397H117.61Z" fill="#31263B"/>
<path d="M87.5538 352.031C82.6976 352.031 78.4219 351.081 74.727 349.18C71.0848 347.28 68.2607 344.694 66.2549 341.421C64.249 338.095 63.2461 334.321 63.2461 330.098C63.2461 325.823 64.2226 322.049 66.1757 318.776C68.1815 315.45 70.9 312.864 74.3311 311.016C77.7621 309.116 81.6418 308.166 85.9703 308.166C90.1403 308.166 93.8881 309.063 97.2136 310.858C100.592 312.6 103.258 315.134 105.211 318.459C107.164 321.732 108.14 325.664 108.14 330.257C108.14 330.732 108.114 331.286 108.061 331.92C108.008 332.5 107.955 333.054 107.903 333.582H73.3017V326.377H101.41L96.6593 328.515C96.6593 326.298 96.2107 324.371 95.3133 322.735C94.416 321.098 93.1755 319.832 91.5919 318.934C90.0084 317.984 88.1609 317.509 86.0494 317.509C83.938 317.509 82.0641 317.984 80.4278 318.934C78.8442 319.832 77.6038 321.125 76.7064 322.814C75.8091 324.45 75.3604 326.403 75.3604 328.673V330.573C75.3604 332.896 75.8618 334.955 76.8648 336.749C77.9205 338.491 79.3721 339.837 81.2196 340.787C83.1198 341.685 85.3368 342.134 87.8705 342.134C90.1403 342.134 92.1198 341.79 93.8089 341.104C95.5508 340.418 97.1344 339.389 98.5596 338.016L105.131 345.142C103.178 347.359 100.724 349.075 97.7678 350.289C94.8118 351.45 91.4072 352.031 87.5538 352.031Z" fill="#31263B"/>
<path d="M1.57031 351.394V295.969H14.318V340.942H39.0217V295.969H51.7694V351.394H1.57031ZM47.8896 363.112V348.385L50.6609 351.394H39.0217V340.942H59.6872V363.112H47.8896Z" fill="#31263B"/>
</svg>
