<svg width="166" height="26" viewBox="0 0 166 26" fill="none" xmlns="http://www.w3.org/2000/svg">
    <path fill-rule="evenodd" clip-rule="evenodd" d="M0 16.6483C0 16.6483 5.02339 16.6964 7.29946 17.1036C14.5469 18.3874 14.825 25.0861 14.825 25.0861C14.825 25.0861 13.6443 25.1518 10.5302 25.1518C3.26803 25.1518 0 16.6483 0 16.6483Z" fill="#2DAA55"/>
    <path fill-rule="evenodd" clip-rule="evenodd" d="M30.6489 16.6483C30.6489 16.6483 25.6261 16.6964 23.3485 17.1036C16.104 18.3874 15.8265 25.0861 15.8265 25.0861C15.8265 25.0861 17.0057 25.1518 20.1198 25.1518C27.3834 25.1518 30.6489 16.6483 30.6489 16.6483Z" fill="#2DAA55"/>
    <path fill-rule="evenodd" clip-rule="evenodd" d="M18.0314 15.8703C18.0314 17.3238 16.8195 18.5022 15.3245 18.5022C13.829 18.5022 12.617 17.3238 12.617 15.8703C12.617 14.4167 13.829 13.2384 15.3245 13.2384C16.8195 13.2384 18.0314 14.4167 18.0314 15.8703Z" fill="#004A86"/>
    <path fill-rule="evenodd" clip-rule="evenodd" d="M23.5649 13.2796C23.5649 14.7331 22.353 15.9115 20.858 15.9115C19.3625 15.9115 18.1505 14.7331 18.1505 13.2796C18.1505 11.826 19.3625 10.6477 20.858 10.6477C22.353 10.6477 23.5649 11.826 23.5649 13.2796Z" fill="#004A86"/>
    <path fill-rule="evenodd" clip-rule="evenodd" d="M21.1022 2.78985C21.1022 4.24339 19.8902 5.42173 18.3952 5.42173C16.8997 5.42173 15.6877 4.24339 15.6877 2.78985C15.6877 1.3363 16.8997 0.157959 18.3952 0.157959C19.8902 0.157959 21.1022 1.3363 21.1022 2.78985Z" fill="#004A86"/>
    <path fill-rule="evenodd" clip-rule="evenodd" d="M14.9607 2.78985C14.9607 4.24339 13.7487 5.42173 12.2537 5.42173C10.7582 5.42173 9.54626 4.24339 9.54626 2.78985C9.54626 1.3363 10.7582 0.157959 12.2537 0.157959C13.7487 0.157959 14.9607 1.3363 14.9607 2.78985Z" fill="#004A86"/>
    <path fill-rule="evenodd" clip-rule="evenodd" d="M12.4984 13.2796C12.4984 14.7331 11.2865 15.9115 9.79148 15.9115C8.29597 15.9115 7.08401 14.7331 7.08401 13.2796C7.08401 11.826 8.29597 10.6477 9.79148 10.6477C11.2865 10.6477 12.4984 11.826 12.4984 13.2796Z" fill="#004A86"/>
    <path fill-rule="evenodd" clip-rule="evenodd" d="M24.9313 7.45855C24.9313 8.91209 23.7193 10.0904 22.2243 10.0904C20.7288 10.0904 19.5168 8.91209 19.5168 7.45855C19.5168 6.005 20.7288 4.82666 22.2243 4.82666C23.7193 4.82666 24.9313 6.005 24.9313 7.45855Z" fill="#004A86"/>
    <path fill-rule="evenodd" clip-rule="evenodd" d="M11.1316 7.45855C11.1316 8.91209 9.91964 10.0904 8.42463 10.0904C6.92911 10.0904 5.71716 8.91209 5.71716 7.45855C5.71716 6.005 6.92911 4.82666 8.42463 4.82666C9.91964 4.82666 11.1316 6.005 11.1316 7.45855Z" fill="#004A86"/>
    <path fill-rule="evenodd" clip-rule="evenodd" d="M44.1404 22.8167C41.2028 22.8408 36.0629 22.0073 36.0629 16.1529C36.0629 10.3696 41.2028 9.39336 44.1404 9.48853V7.65578H48.9382V9.48853C51.8758 9.39336 57.0162 10.3696 57.0162 16.1529C57.0162 22.0073 51.8758 22.8408 48.9382 22.8167V25.1489H44.1404V22.8167ZM44.4835 12.8205C43.2841 12.7969 40.8602 13.2016 40.8602 16.1529C40.8602 19.1036 43.2841 19.5083 44.4835 19.4848V12.8205ZM48.5961 19.4848C49.7955 19.5083 52.2183 19.1036 52.2183 16.1529C52.2183 13.2016 49.7955 12.7969 48.5961 12.8205V19.4848ZM58.7963 16.8186C58.7963 12.3682 61.7333 8.01291 68 8.01291C74.2666 8.01291 77.2036 12.3682 77.2036 16.8186C77.2036 21.27 74.2666 25.6252 68 25.6252C61.7333 25.6252 58.7963 21.27 58.7963 16.8186ZM72.2589 16.8186C72.2589 13.6063 70.2271 12.0115 68 12.0115C65.7723 12.0115 63.7405 13.6063 63.7405 16.8186C63.7405 20.0318 65.7723 21.6261 68 21.6261C70.2271 21.6261 72.2589 20.0318 72.2589 16.8186ZM92.3611 24.3875C90.8186 25.4108 89.203 25.6252 87.7348 25.6252C82.6428 25.6252 78.9706 22.15 78.9706 16.8186C78.9706 11.2497 83.0101 8.01291 87.6611 8.01291C89.1788 8.01291 90.9165 8.39408 92.3611 9.34578V14.1769C91.4801 13.1776 90.1329 12.1783 88.2979 12.1783C85.6535 12.1783 83.9158 14.2245 83.9158 16.9613C83.9158 19.4848 85.5556 21.4598 88.2979 21.4598C90.084 21.4598 91.4801 20.5317 92.3611 19.6511V24.3875ZM99.6974 8.48925H105.523L111.619 25.1489H106.478L105.523 22.2693H99.6974L98.7428 25.1489H93.6023L99.6974 8.48925ZM100.653 18.6037H104.568L102.61 12.4633L100.653 18.6037ZM113.29 8.48925H123.571V12.4874H118.088V25.1489H113.29V8.48925ZM125.463 8.48925H132.684C137.555 8.48925 138.926 11.7736 138.926 14.0582C138.926 16.3668 137.531 19.6511 132.684 19.6511H130.261V25.1489H125.463V8.48925ZM130.261 15.9861H131.631C133.762 15.9861 133.982 14.7724 133.982 14.0582C133.982 13.2252 133.688 12.1548 131.631 12.1548H130.261V15.9861ZM140.544 16.8186C140.544 12.3682 143.482 8.01291 149.748 8.01291C156.014 8.01291 158.952 12.3682 158.952 16.8186C158.952 21.27 156.014 25.6252 149.748 25.6252C143.482 25.6252 140.544 21.27 140.544 16.8186ZM154.007 16.8186C154.007 13.6063 151.975 12.0115 149.748 12.0115C147.52 12.0115 145.488 13.6063 145.488 16.8186C145.488 20.0318 147.52 21.6261 149.748 21.6261C151.975 21.6261 154.007 20.0318 154.007 16.8186ZM165.247 10.2999C165.247 11.8016 164.098 12.9333 162.538 12.9333C160.979 12.9333 159.83 11.8016 159.83 10.2999C159.83 8.79095 160.979 7.65186 162.538 7.65186C164.098 7.65186 165.247 8.79095 165.247 10.2999ZM160.277 10.2999C160.277 11.5695 161.21 12.5418 162.538 12.5418C163.866 12.5418 164.799 11.5695 164.799 10.2999C164.799 9.02299 163.866 8.04382 162.538 8.04382C161.21 8.04382 160.277 9.02299 160.277 10.2999ZM162.416 8.7625C162.759 8.7625 163.535 8.81989 163.535 9.68329C163.535 10.1474 163.251 10.4451 162.849 10.5246L163.892 11.8089H163.221L162.296 10.6051H162.147V11.8089H161.61V8.7625H162.416ZM162.147 10.1258H162.348C162.572 10.1258 162.997 10.1042 162.997 9.68329C162.997 9.2408 162.565 9.2408 162.363 9.2408H162.147V10.1258Z" fill="#004A86"/>
</svg>